<?xml version="1.0" encoding="UTF-8" standalone="no"?>
<!-- Created with Inkscape (http://www.inkscape.org/) -->

<svg
   width="120"
   height="120"
   viewBox="0 0 120 120"
   version="1.1"
   id="svg5"
   xmlns="http://www.w3.org/2000/svg"
   xmlns:svg="http://www.w3.org/2000/svg">
  <defs
     id="defs2">
    <rect
       x="18.335234"
       y="27.913342"
       width="69.509689"
       height="14.0935"
       id="rect1033" />
    <rect
       x="18.335234"
       y="27.913342"
       width="69.509689"
       height="14.0935"
       id="rect1238" />
  </defs>
  <g
     id="g2228"
     style="display:none"
     transform="translate(-3.3628478,-21.928174)">
    <path
       style="fill:#c83737;fill-opacity:1;fill-rule:evenodd"
       d="M 47.680511,111.52717 V 53.862088 Z"
       id="path2210" />
    <path
       style="fill:#c83737;fill-opacity:1;fill-rule:evenodd"
       d="M 67.220808,49.312177 V 98.981502"
       id="path2212" />
    <path
       style="fill:#c83737;fill-opacity:1;fill-rule:evenodd"
       d="m 50.527535,75.217368 c -10e-4,-10.058013 10e-4,20.115025 0,0 z"
       id="path2214" />
    <path
       style="fill:#c83737;fill-opacity:1;fill-rule:evenodd"
       d="M 67.494468,49.038517 V 99.528822 Z"
       id="path2216" />
    <rect
       style="fill:#1a1a1a;fill-opacity:1;fill-rule:evenodd;stroke-width:1.47944"
       id="rect2218"
       width="3.1615384"
       height="43.162689"
       x="48.947056"
       y="67.370323" />
    <circle
       style="fill:#1a1a1a;fill-opacity:1;fill-rule:evenodd"
       id="circle2220"
       cx="50.527248"
       cy="63.47871"
       r="13.614595" />
    <circle
       style="fill:#1a1a1a;fill-opacity:1;fill-rule:evenodd"
       id="circle2222"
       cx="63.389568"
       cy="72.822838"
       r="11.356898" />
    <circle
       style="fill:#1a1a1a;fill-opacity:1;fill-rule:evenodd"
       id="circle2224"
       cx="37.665504"
       cy="72.822838"
       r="11.356898" />
    <ellipse
       style="fill:#1a1a1a;fill-opacity:1;fill-rule:evenodd;stroke-width:1.0339"
       id="ellipse2226"
       cx="50.801197"
       cy="80.534325"
       rx="9.90275"
       ry="8.4173384" />
  </g>
  <g
     id="layer1"
     style="display:none"
     transform="translate(1.3545489,22.059796)">
    <text
       xml:space="preserve"
       id="text1031"
       style="font-style:normal;font-variant:normal;font-weight:normal;font-stretch:normal;font-size:12px;font-family:Inter;-inkscape-font-specification:'Inter, Normal';font-variant-ligatures:normal;font-variant-caps:normal;font-variant-numeric:normal;font-variant-east-asian:normal;white-space:pre;shape-inside:url(#rect1033);display:inline;fill:#1a1a1a;fill-rule:evenodd;image-rendering:auto"
       transform="matrix(2.6869761,0,0,2.6869761,0.03095073,-38.820807)"><tspan
         x="18.335938"
         y="39.019696"
         id="tspan2432">ree</tspan></text>
  </g>
  <g
     id="layer3"
     style="display:none">
    <rect
       style="display:inline;fill:#1a1a1a;fill-rule:evenodd;stroke-width:0.885709"
       id="rect588"
       width="1.9706702"
       height="8.6193953"
       x="90.957581"
       y="29.803236"
       ry="0"
       transform="matrix(0.85258001,0.52259671,-0.82105212,0.57085323,0,0)" />
    <rect
       style="display:inline;fill:#1a1a1a;fill-rule:evenodd;stroke-width:0.885709"
       id="rect588-6"
       width="1.9706702"
       height="8.6193953"
       x="33.940754"
       y="84.657738"
       ry="0"
       transform="matrix(-0.85258001,0.52259671,0.82105212,0.57085323,0,0)" />
    <rect
       style="fill:#1a1a1a;fill-opacity:1;fill-rule:evenodd;stroke-width:0.793492"
       id="rect2274"
       width="2.3261118"
       height="53.363739"
       x="46.001633"
       y="35.086643" />
    <circle
       style="fill:#333333;fill-opacity:1;fill-rule:evenodd;stroke-width:0.544975"
       id="path2279"
       cx="47.164688"
       cy="53.35577"
       r="11.191631" />
    <circle
       style="fill:#333333;fill-opacity:1;fill-rule:evenodd;stroke-width:0.683473"
       id="path2285"
       cx="47.164688"
       cy="42.259632"
       r="15.573231" />
    <ellipse
       style="fill:#333333;fill-opacity:1;fill-rule:evenodd;stroke-width:0.813628"
       id="path2289-3"
       cx="34.329376"
       cy="51.129814"
       rx="8.9402351"
       ry="8.8701811" />
    <ellipse
       style="fill:#333333;fill-opacity:1;fill-rule:evenodd;stroke-width:0.813628"
       id="path2289-3-0"
       cx="58.356319"
       cy="51.129814"
       rx="8.9402351"
       ry="8.8701811" />
    <ellipse
       style="fill:#333333;fill-opacity:1;fill-rule:evenodd"
       id="path2315"
       cx="34.329376"
       cy="39.39801"
       rx="6.3114161"
       ry="7.7779331" />
    <ellipse
       style="fill:#333333;fill-opacity:1;fill-rule:evenodd"
       id="path2315-7"
       cx="60"
       cy="39.39801"
       rx="6.3114161"
       ry="7.7779331" />
  </g>
  <g
     id="g1236"
     style="display:none"
     transform="translate(1.3545489,22.059796)">
    <g
       aria-label="ree"
       transform="matrix(2.6869761,0,0,2.6869761,-1.2752214,-38.069019)"
       id="text1234"
       style="font-size:12px;font-family:Inter;-inkscape-font-specification:'Inter, Normal';white-space:pre;shape-inside:url(#rect1238);display:inline;fill:#1a1a1a;fill-rule:evenodd">
      <path
         d="m 19.256392,39.232677 v -6.511889 h 0.971591 v 0.983566 h 0.06818 q 0.178977,-0.483304 0.647727,-0.78431 0.46875,-0.301005 1.056818,-0.301005 0.110796,0 0.276989,0.0043 0.166193,0.0043 0.25142,0.01271 v 1.017484 q -0.05114,-0.01272 -0.234375,-0.03815 -0.178977,-0.02968 -0.379261,-0.02968 -0.477273,0 -0.852273,0.199257 -0.370738,0.195018 -0.588068,0.542658 -0.213068,0.3434 -0.213068,0.78431 v 4.120805 z"
         id="path1351"
         style="stroke-width:0.997433" />
      <path
         d="m 32.419384,39.232733 q -0.946023,0 -1.632102,-0.398686 -0.681818,-0.402755 -1.052557,-1.12283 -0.366477,-0.724145 -0.366477,-1.684247 0,-0.960101 0.366477,-1.692382 0.370739,-0.736349 1.03125,-1.147239 0.664773,-0.41496 1.551136,-0.41496 0.511364,0 1.009943,0.162729 0.49858,0.16273 0.907671,0.528869 0.409091,0.362073 0.651989,0.960102 0.242897,0.59803 0.242897,1.472699 v 0.406822 h -5.045454 v -0.829918 h 4.022727 q 0,-0.528869 -0.221591,-0.943829 -0.217329,-0.41496 -0.622159,-0.654985 -0.400568,-0.240024 -0.946023,-0.240024 -0.600852,0 -1.039772,0.284775 -0.43466,0.280708 -0.669035,0.73228 -0.234375,0.451574 -0.234375,0.968239 v 0.553278 q 0,0.707872 0.255682,1.200128 0.259943,0.488187 0.720171,0.744485 0.460227,0.25223 1.069602,0.25223 0.396307,0 0.715909,-0.105774 0.323864,-0.109841 0.558239,-0.325458 0.234375,-0.219684 0.362216,-0.545142 l 0.971591,0.260366 q -0.15341,0.471915 -0.515625,0.829919 -0.362216,0.353936 -0.894887,0.553278 -0.53267,0.195275 -1.197443,0.195275 z"
         id="path1353-7"
         style="font-size:12px;font-family:Inter;-inkscape-font-specification:'Inter, Normal';white-space:pre;shape-inside:url(#rect1238);display:inline;fill:#1a1a1a;fill-rule:evenodd;stroke-width:0.977076" />
      <path
         d="m 26.010925,39.232733 q -0.946023,0 -1.632102,-0.398686 -0.681818,-0.402755 -1.052557,-1.12283 -0.366477,-0.724145 -0.366477,-1.684247 0,-0.960101 0.366477,-1.692382 0.370739,-0.736349 1.03125,-1.147239 0.664773,-0.41496 1.551136,-0.41496 0.511364,0 1.009943,0.162729 0.49858,0.16273 0.907671,0.528869 0.409091,0.362073 0.651989,0.960102 0.242897,0.59803 0.242897,1.472699 v 0.406822 h -5.045454 v -0.829918 h 4.022727 q 0,-0.528869 -0.221591,-0.943829 -0.217329,-0.41496 -0.622159,-0.654985 -0.400568,-0.240024 -0.946023,-0.240024 -0.600852,0 -1.039772,0.284775 -0.43466,0.280708 -0.669035,0.73228 -0.234375,0.451574 -0.234375,0.968239 v 0.553278 q 0,0.707872 0.255682,1.200128 0.259943,0.488187 0.720171,0.744485 0.460227,0.25223 1.069602,0.25223 0.396307,0 0.715909,-0.105774 0.323864,-0.109841 0.558239,-0.325458 0.234375,-0.219684 0.362216,-0.545142 l 0.971591,0.260366 q -0.15341,0.471915 -0.515625,0.829919 -0.362216,0.353936 -0.894887,0.553278 -0.53267,0.195275 -1.197443,0.195275 z"
         id="path1353"
         style="stroke-width:0.977076" />
      <path
         d="m 33.240057,39.002709 q -0.886897,0 -1.530097,-0.398686 -0.639204,-0.402755 -0.986772,-1.12283 -0.343572,-0.724145 -0.343572,-1.684247 0,-0.960101 0.343572,-1.692382 0.347568,-0.736349 0.966797,-1.147239 0.623225,-0.41496 1.454191,-0.41496 0.479404,0 0.946823,0.162729 0.467418,0.16273 0.85094,0.528869 0.383523,0.362073 0.61124,0.960102 0.227716,0.59803 0.227716,1.472699 v 0.406822 h -4.730114 v -0.829918 h 3.771307 q 0,-0.528869 -0.207741,-0.943829 -0.203746,-0.41496 -0.583274,-0.654985 -0.375533,-0.240024 -0.886897,-0.240024 -0.563299,0 -0.974787,0.284775 -0.407493,0.280708 -0.62722,0.73228 -0.219726,0.451574 -0.219726,0.968239 v 0.553278 q 0,0.707872 0.239701,1.200128 0.243697,0.488187 0.67516,0.744485 0.431463,0.25223 1.002753,0.25223 0.371538,0 0.671165,-0.105774 0.303622,-0.109841 0.523349,-0.325458 0.219726,-0.219684 0.339577,-0.545142 l 0.910867,0.260366 q -0.143821,0.471915 -0.483398,0.829919 -0.339578,0.353936 -0.838957,0.553278 -0.499378,0.195275 -1.122603,0.195275 z"
         id="path1355"
         style="display:none;stroke-width:0.94605" />
    </g>
  </g>
  <g
     id="g1230"
     style="display:none">
    <rect
       style="display:inline;fill:#1a1a1a;fill-rule:evenodd;stroke-width:0.885709"
       id="rect1212"
       width="1.9706702"
       height="8.6193953"
       x="91.816315"
       y="30.694948"
       ry="0"
       transform="matrix(0.85258001,0.52259671,-0.82105212,0.57085323,0,0)" />
    <rect
       style="display:inline;fill:#1a1a1a;fill-rule:evenodd;stroke-width:0.885709"
       id="rect1214"
       width="1.9706702"
       height="8.6193953"
       x="34.799492"
       y="85.549454"
       ry="0"
       transform="matrix(-0.85258001,0.52259671,0.82105212,0.57085323,0,0)" />
    <rect
       style="fill:#1a1a1a;fill-opacity:1;fill-rule:evenodd;stroke-width:0.793492"
       id="rect1216"
       width="2.3261118"
       height="53.363739"
       x="46.001633"
       y="36.044453" />
    <circle
       style="fill:#333333;fill-opacity:1;fill-rule:evenodd;stroke-width:0.544975"
       id="circle1218"
       cx="47.164688"
       cy="54.31358"
       r="11.191631" />
    <circle
       style="fill:#333333;fill-opacity:1;fill-rule:evenodd;stroke-width:0.683473"
       id="circle1220"
       cx="47.164688"
       cy="43.217442"
       r="15.573231" />
    <ellipse
       style="fill:#333333;fill-opacity:1;fill-rule:evenodd;stroke-width:0.813628"
       id="ellipse1222"
       cx="34.329376"
       cy="52.087624"
       rx="8.9402351"
       ry="8.8701811" />
    <ellipse
       style="fill:#333333;fill-opacity:1;fill-rule:evenodd;stroke-width:0.813628"
       id="ellipse1224"
       cx="58.356319"
       cy="52.087624"
       rx="8.9402351"
       ry="8.8701811" />
    <ellipse
       style="fill:#333333;fill-opacity:1;fill-rule:evenodd"
       id="ellipse1226"
       cx="34.329376"
       cy="40.35582"
       rx="6.3114161"
       ry="7.7779331" />
    <ellipse
       style="fill:#333333;fill-opacity:1;fill-rule:evenodd"
       id="ellipse1228"
       cx="60"
       cy="40.35582"
       rx="6.3114161"
       ry="7.7779331" />
  </g>
  <g
     id="g1433"
     style="display:none;fill:#f2f2f2"
     transform="translate(1.3545489,22.059796)">
    <g
       aria-label="ree"
       transform="matrix(2.6869761,0,0,2.6869761,-1.2752214,-38.069019)"
       id="g1431"
       style="font-size:12px;font-family:Inter;-inkscape-font-specification:'Inter, Normal';white-space:pre;shape-inside:url(#rect1238);display:inline;fill:#f2f2f2;fill-rule:evenodd">
      <path
         d="m 19.256392,39.232677 v -6.511889 h 0.971591 v 0.983566 h 0.06818 q 0.178977,-0.483304 0.647727,-0.78431 0.46875,-0.301005 1.056818,-0.301005 0.110796,0 0.276989,0.0043 0.166193,0.0043 0.25142,0.01271 v 1.017484 q -0.05114,-0.01272 -0.234375,-0.03815 -0.178977,-0.02968 -0.379261,-0.02968 -0.477273,0 -0.852273,0.199257 -0.370738,0.195018 -0.588068,0.542658 -0.213068,0.3434 -0.213068,0.78431 v 4.120805 z"
         id="path1423"
         style="fill:#f2f2f2;stroke-width:0.997433" />
      <path
         d="m 32.419384,39.232733 q -0.946023,0 -1.632102,-0.398686 -0.681818,-0.402755 -1.052557,-1.12283 -0.366477,-0.724145 -0.366477,-1.684247 0,-0.960101 0.366477,-1.692382 0.370739,-0.736349 1.03125,-1.147239 0.664773,-0.41496 1.551136,-0.41496 0.511364,0 1.009943,0.162729 0.49858,0.16273 0.907671,0.528869 0.409091,0.362073 0.651989,0.960102 0.242897,0.59803 0.242897,1.472699 v 0.406822 h -5.045454 v -0.829918 h 4.022727 q 0,-0.528869 -0.221591,-0.943829 -0.217329,-0.41496 -0.622159,-0.654985 -0.400568,-0.240024 -0.946023,-0.240024 -0.600852,0 -1.039772,0.284775 -0.43466,0.280708 -0.669035,0.73228 -0.234375,0.451574 -0.234375,0.968239 v 0.553278 q 0,0.707872 0.255682,1.200128 0.259943,0.488187 0.720171,0.744485 0.460227,0.25223 1.069602,0.25223 0.396307,0 0.715909,-0.105774 0.323864,-0.109841 0.558239,-0.325458 0.234375,-0.219684 0.362216,-0.545142 l 0.971591,0.260366 q -0.15341,0.471915 -0.515625,0.829919 -0.362216,0.353936 -0.894887,0.553278 -0.53267,0.195275 -1.197443,0.195275 z"
         id="path1425"
         style="font-size:12px;font-family:Inter;-inkscape-font-specification:'Inter, Normal';white-space:pre;shape-inside:url(#rect1238);display:inline;fill:#f2f2f2;fill-rule:evenodd;stroke-width:0.977076" />
      <path
         d="m 26.010925,39.232733 q -0.946023,0 -1.632102,-0.398686 -0.681818,-0.402755 -1.052557,-1.12283 -0.366477,-0.724145 -0.366477,-1.684247 0,-0.960101 0.366477,-1.692382 0.370739,-0.736349 1.03125,-1.147239 0.664773,-0.41496 1.551136,-0.41496 0.511364,0 1.009943,0.162729 0.49858,0.16273 0.907671,0.528869 0.409091,0.362073 0.651989,0.960102 0.242897,0.59803 0.242897,1.472699 v 0.406822 h -5.045454 v -0.829918 h 4.022727 q 0,-0.528869 -0.221591,-0.943829 -0.217329,-0.41496 -0.622159,-0.654985 -0.400568,-0.240024 -0.946023,-0.240024 -0.600852,0 -1.039772,0.284775 -0.43466,0.280708 -0.669035,0.73228 -0.234375,0.451574 -0.234375,0.968239 v 0.553278 q 0,0.707872 0.255682,1.200128 0.259943,0.488187 0.720171,0.744485 0.460227,0.25223 1.069602,0.25223 0.396307,0 0.715909,-0.105774 0.323864,-0.109841 0.558239,-0.325458 0.234375,-0.219684 0.362216,-0.545142 l 0.971591,0.260366 q -0.15341,0.471915 -0.515625,0.829919 -0.362216,0.353936 -0.894887,0.553278 -0.53267,0.195275 -1.197443,0.195275 z"
         id="path1427"
         style="fill:#f2f2f2;stroke-width:0.977076" />
      <path
         d="m 33.240057,39.002709 q -0.886897,0 -1.530097,-0.398686 -0.639204,-0.402755 -0.986772,-1.12283 -0.343572,-0.724145 -0.343572,-1.684247 0,-0.960101 0.343572,-1.692382 0.347568,-0.736349 0.966797,-1.147239 0.623225,-0.41496 1.454191,-0.41496 0.479404,0 0.946823,0.162729 0.467418,0.16273 0.85094,0.528869 0.383523,0.362073 0.61124,0.960102 0.227716,0.59803 0.227716,1.472699 v 0.406822 h -4.730114 v -0.829918 h 3.771307 q 0,-0.528869 -0.207741,-0.943829 -0.203746,-0.41496 -0.583274,-0.654985 -0.375533,-0.240024 -0.886897,-0.240024 -0.563299,0 -0.974787,0.284775 -0.407493,0.280708 -0.62722,0.73228 -0.219726,0.451574 -0.219726,0.968239 v 0.553278 q 0,0.707872 0.239701,1.200128 0.243697,0.488187 0.67516,0.744485 0.431463,0.25223 1.002753,0.25223 0.371538,0 0.671165,-0.105774 0.303622,-0.109841 0.523349,-0.325458 0.219726,-0.219684 0.339577,-0.545142 l 0.910867,0.260366 q -0.143821,0.471915 -0.483398,0.829919 -0.339578,0.353936 -0.838957,0.553278 -0.499378,0.195275 -1.122603,0.195275 z"
         id="path1429"
         style="display:none;fill:#f2f2f2;stroke-width:0.94605" />
    </g>
  </g>
  <g
     id="g1421"
     style="display:none;fill:#f2f2f2">
    <rect
       style="display:inline;fill:#f2f2f2;fill-rule:evenodd;stroke-width:0.885709"
       id="rect1403"
       width="1.9706702"
       height="8.6193953"
       x="91.816315"
       y="30.694948"
       ry="0"
       transform="matrix(0.85258001,0.52259671,-0.82105212,0.57085323,0,0)" />
    <rect
       style="display:inline;fill:#f2f2f2;fill-rule:evenodd;stroke-width:0.885709"
       id="rect1405"
       width="1.9706702"
       height="8.6193953"
       x="34.799492"
       y="85.549454"
       ry="0"
       transform="matrix(-0.85258001,0.52259671,0.82105212,0.57085323,0,0)" />
    <rect
       style="fill:#f2f2f2;fill-opacity:1;fill-rule:evenodd;stroke-width:0.793492"
       id="rect1407"
       width="2.3261118"
       height="53.363739"
       x="46.001633"
       y="36.044453" />
    <circle
       style="fill:#f2f2f2;fill-opacity:1;fill-rule:evenodd;stroke-width:0.544975"
       id="circle1409"
       cx="47.164688"
       cy="54.31358"
       r="11.191631" />
    <circle
       style="fill:#f2f2f2;fill-opacity:1;fill-rule:evenodd;stroke-width:0.683473"
       id="circle1411"
       cx="47.164688"
       cy="43.217442"
       r="15.573231" />
    <ellipse
       style="fill:#f2f2f2;fill-opacity:1;fill-rule:evenodd;stroke-width:0.813628"
       id="ellipse1413"
       cx="34.329376"
       cy="52.087624"
       rx="8.9402351"
       ry="8.8701811" />
    <ellipse
       style="fill:#f2f2f2;fill-opacity:1;fill-rule:evenodd;stroke-width:0.813628"
       id="ellipse1415"
       cx="58.356319"
       cy="52.087624"
       rx="8.9402351"
       ry="8.8701811" />
    <ellipse
       style="fill:#f2f2f2;fill-opacity:1;fill-rule:evenodd"
       id="ellipse1417"
       cx="34.329376"
       cy="40.35582"
       rx="6.3114161"
       ry="7.7779331" />
    <ellipse
       style="fill:#f2f2f2;fill-opacity:1;fill-rule:evenodd"
       id="ellipse1419"
       cx="60"
       cy="40.35582"
       rx="6.3114161"
       ry="7.7779331" />
  </g>
  <g
     id="g1445"
     style="display:inline;fill:#1a1a1a"
     transform="translate(1.3545489,22.059796)">
    <rect
       style="display:inline;fill:#1a1a1a;fill-rule:evenodd"
       id="rect348"
       width="120"
       height="120"
       x="-1.3545489"
       y="-22.059795" />
  </g>
  <g
     id="g827"
     style="display:inline;fill:#f2f2f2"
     transform="matrix(1.3978919,0,0,1.3978919,-23.776286,-21.813304)">
    <g
       id="g839"
       style="display:inline;fill:#f2f2f2"
       transform="translate(1.3545489,22.059796)">
      <g
         aria-label="ree"
         transform="matrix(2.6869761,0,0,2.6869761,-1.2752214,-38.069019)"
         id="g837"
         style="font-size:12px;font-family:Inter;-inkscape-font-specification:'Inter, Normal';white-space:pre;shape-inside:url(#rect1238);display:inline;fill:#f2f2f2;fill-rule:evenodd">
        <path
           d="m 19.256392,39.232677 v -6.511889 h 0.971591 v 0.983566 h 0.06818 q 0.178977,-0.483304 0.647727,-0.78431 0.46875,-0.301005 1.056818,-0.301005 0.110796,0 0.276989,0.0043 0.166193,0.0043 0.25142,0.01271 v 1.017484 q -0.05114,-0.01272 -0.234375,-0.03815 -0.178977,-0.02968 -0.379261,-0.02968 -0.477273,0 -0.852273,0.199257 -0.370738,0.195018 -0.588068,0.542658 -0.213068,0.3434 -0.213068,0.78431 v 4.120805 z"
           id="path829"
           style="fill:#f2f2f2;stroke-width:0.997433" />
        <path
           d="m 32.419384,39.232733 q -0.946023,0 -1.632102,-0.398686 -0.681818,-0.402755 -1.052557,-1.12283 -0.366477,-0.724145 -0.366477,-1.684247 0,-0.960101 0.366477,-1.692382 0.370739,-0.736349 1.03125,-1.147239 0.664773,-0.41496 1.551136,-0.41496 0.511364,0 1.009943,0.162729 0.49858,0.16273 0.907671,0.528869 0.409091,0.362073 0.651989,0.960102 0.242897,0.59803 0.242897,1.472699 v 0.406822 h -5.045454 v -0.829918 h 4.022727 q 0,-0.528869 -0.221591,-0.943829 -0.217329,-0.41496 -0.622159,-0.654985 -0.400568,-0.240024 -0.946023,-0.240024 -0.600852,0 -1.039772,0.284775 -0.43466,0.280708 -0.669035,0.73228 -0.234375,0.451574 -0.234375,0.968239 v 0.553278 q 0,0.707872 0.255682,1.200128 0.259943,0.488187 0.720171,0.744485 0.460227,0.25223 1.069602,0.25223 0.396307,0 0.715909,-0.105774 0.323864,-0.109841 0.558239,-0.325458 0.234375,-0.219684 0.362216,-0.545142 l 0.971591,0.260366 q -0.15341,0.471915 -0.515625,0.829919 -0.362216,0.353936 -0.894887,0.553278 -0.53267,0.195275 -1.197443,0.195275 z"
           id="path831"
           style="font-size:12px;font-family:Inter;-inkscape-font-specification:'Inter, Normal';white-space:pre;shape-inside:url(#rect1238);display:inline;fill:#f2f2f2;fill-rule:evenodd;stroke-width:0.977076" />
        <path
           d="m 26.010925,39.232733 q -0.946023,0 -1.632102,-0.398686 -0.681818,-0.402755 -1.052557,-1.12283 -0.366477,-0.724145 -0.366477,-1.684247 0,-0.960101 0.366477,-1.692382 0.370739,-0.736349 1.03125,-1.147239 0.664773,-0.41496 1.551136,-0.41496 0.511364,0 1.009943,0.162729 0.49858,0.16273 0.907671,0.528869 0.409091,0.362073 0.651989,0.960102 0.242897,0.59803 0.242897,1.472699 v 0.406822 h -5.045454 v -0.829918 h 4.022727 q 0,-0.528869 -0.221591,-0.943829 -0.217329,-0.41496 -0.622159,-0.654985 -0.400568,-0.240024 -0.946023,-0.240024 -0.600852,0 -1.039772,0.284775 -0.43466,0.280708 -0.669035,0.73228 -0.234375,0.451574 -0.234375,0.968239 v 0.553278 q 0,0.707872 0.255682,1.200128 0.259943,0.488187 0.720171,0.744485 0.460227,0.25223 1.069602,0.25223 0.396307,0 0.715909,-0.105774 0.323864,-0.109841 0.558239,-0.325458 0.234375,-0.219684 0.362216,-0.545142 l 0.971591,0.260366 q -0.15341,0.471915 -0.515625,0.829919 -0.362216,0.353936 -0.894887,0.553278 -0.53267,0.195275 -1.197443,0.195275 z"
           id="path833"
           style="fill:#f2f2f2;stroke-width:0.977076" />
        <path
           d="m 33.240057,39.002709 q -0.886897,0 -1.530097,-0.398686 -0.639204,-0.402755 -0.986772,-1.12283 -0.343572,-0.724145 -0.343572,-1.684247 0,-0.960101 0.343572,-1.692382 0.347568,-0.736349 0.966797,-1.147239 0.623225,-0.41496 1.454191,-0.41496 0.479404,0 0.946823,0.162729 0.467418,0.16273 0.85094,0.528869 0.383523,0.362073 0.61124,0.960102 0.227716,0.59803 0.227716,1.472699 v 0.406822 h -4.730114 v -0.829918 h 3.771307 q 0,-0.528869 -0.207741,-0.943829 -0.203746,-0.41496 -0.583274,-0.654985 -0.375533,-0.240024 -0.886897,-0.240024 -0.563299,0 -0.974787,0.284775 -0.407493,0.280708 -0.62722,0.73228 -0.219726,0.451574 -0.219726,0.968239 v 0.553278 q 0,0.707872 0.239701,1.200128 0.243697,0.488187 0.67516,0.744485 0.431463,0.25223 1.002753,0.25223 0.371538,0 0.671165,-0.105774 0.303622,-0.109841 0.523349,-0.325458 0.219726,-0.219684 0.339577,-0.545142 l 0.910867,0.260366 q -0.143821,0.471915 -0.483398,0.829919 -0.339578,0.353936 -0.838957,0.553278 -0.499378,0.195275 -1.122603,0.195275 z"
           id="path835"
           style="display:none;fill:#f2f2f2;stroke-width:0.94605" />
      </g>
    </g>
    <rect
       style="display:inline;fill:#f2f2f2;fill-rule:evenodd;stroke-width:0.885709"
       id="rect809"
       width="1.9706702"
       height="8.6193953"
       x="91.816315"
       y="30.694948"
       ry="0"
       transform="matrix(0.85258001,0.52259671,-0.82105212,0.57085323,0,0)" />
    <rect
       style="display:inline;fill:#f2f2f2;fill-rule:evenodd;stroke-width:0.885709"
       id="rect811"
       width="1.9706702"
       height="8.6193953"
       x="34.799492"
       y="85.549454"
       ry="0"
       transform="matrix(-0.85258001,0.52259671,0.82105212,0.57085323,0,0)" />
    <rect
       style="fill:#f2f2f2;fill-opacity:1;fill-rule:evenodd;stroke-width:0.793492"
       id="rect813"
       width="2.3261118"
       height="53.363739"
       x="46.001633"
       y="36.044453" />
    <circle
       style="fill:#f2f2f2;fill-opacity:1;fill-rule:evenodd;stroke-width:0.544975"
       id="circle815"
       cx="47.164688"
       cy="54.31358"
       r="11.191631" />
    <circle
       style="fill:#f2f2f2;fill-opacity:1;fill-rule:evenodd;stroke-width:0.683473"
       id="circle817"
       cx="47.164688"
       cy="43.217442"
       r="15.573231" />
    <ellipse
       style="fill:#f2f2f2;fill-opacity:1;fill-rule:evenodd;stroke-width:0.813628"
       id="ellipse819"
       cx="34.329376"
       cy="52.087624"
       rx="8.9402351"
       ry="8.8701811" />
    <ellipse
       style="fill:#f2f2f2;fill-opacity:1;fill-rule:evenodd;stroke-width:0.813628"
       id="ellipse821"
       cx="58.356319"
       cy="52.087624"
       rx="8.9402351"
       ry="8.8701811" />
    <ellipse
       style="fill:#f2f2f2;fill-opacity:1;fill-rule:evenodd"
       id="ellipse823"
       cx="34.329376"
       cy="40.35582"
       rx="6.3114161"
       ry="7.7779331" />
    <ellipse
       style="fill:#f2f2f2;fill-opacity:1;fill-rule:evenodd"
       id="ellipse825"
       cx="60"
       cy="40.35582"
       rx="6.3114161"
       ry="7.7779331" />
  </g>
</svg>
